PathFileType	4	(X/Y/Z)	C:\Users\adpatrick\OneDrive - nih.no\Desktop\WebApp1080sync\WebAppv0.1\fp22_m505_left 2_Sports2D\fp22_m505_left 2_Sports2D_m_person00.trc
DataRate	CameraRate	NumFrames	NumMarkers	Units	OrigDataRate	OrigDataStartFrame	OrigNumFrames
60	60	9	22	m	60	543	869
Frame#	Time	Hip			RHip			RKnee			RAnkle			RBigToe			RSmallToe			RHeel			LHip			LKnee			LAnkle			LBigToe			LSmallToe			LHeel			Neck			Head			Nose			RShoulder			RElbow			RWrist			LShoulder			LElbow			LWrist		
		X1	Y1	Z1	X2	Y2	Z2	X3	Y3	Z3	X4	Y4	Z4	X5	Y5	Z5	X6	Y6	Z6	X7	Y7	Z7	X8	Y8	Z8	X9	Y9	Z9	X10	Y10	Z10	X11	Y11	Z11	X12	Y12	Z12	X13	Y13	Z13	X14	Y14	Z14	X15	Y15	Z15	X16	Y16	Z16	X17	Y17	Z17	X18	Y18	Z18	X19	Y19	Z19	X20	Y20	Z20	X21	Y21	Z21	X22	Y22	Z22
543	9.05	5.181009737499227	0.7067414428313649	0.0301	5.120390740194091	0.6858638251084785	0.0301	5.592602868028329	0.4805945765767937	0.0179	5.359414298479603	0.10182275371151486	0.023	5.5263984891482805	-0.05147537184621225	0.2179	5.474183567780456	-0.057512010030955435	0.1804	5.288062387948914	0.05734292541515232	-0.0119	5.246938874739127	0.7197055075089303	-0.0301	5.610560920840939	0.4989724887900096	-0.0179	5.529691230508893	0.08552082121821628	0.023	5.687870967861475	-0.03944174598841184	0.2179	5.66581978351099	-0.022026664304346133	0.1804	5.476742736508949	0.02353427712784202	-0.0119	5.197784033577094	1.2592872346728918	-0.0008	5.325225649290602	1.5601132707217713	0.0655	5.3659415842898825	1.3752648820620528	0.1076	5.06656829042936	1.1538736905291331	-0.01275	4.9279095623159375	0.8197960935218642	0.0119	5.001916154357883	0.5215060806980778	0.0002	5.2744503761780415	1.206128982672605	0.01275	5.274815133944721	0.9340882302647511	-0.0119	5.463703552585984	0.8188473893734953	-0.0002
544	9.066666666666666	5.244425613163784	0.7017538340274195	0.0301	5.181012435333916	0.6780355631792719	0.0301	5.663163042064692	0.48541523073233417	0.0179	5.50918703200063	0.08981970810773474	0.023	5.6912353101633	-0.0529150095044427	0.2179	5.643044403186983	-0.06375670746957134	0.1804	5.448282075280427	0.03567309960637211	-0.0119	5.315031183469663	0.7181607507868858	-0.0301	5.688733564359128	0.5135048872510052	-0.0179	5.549458235262094	0.1095050553633036	0.023	5.6859953967876065	-0.03177989295781987	0.2179	5.671316733800367	-0.015135646727842874	0.1804	5.4845140645427275	0.05215621142432351	-0.0119	5.267017300032881	1.2480573833508815	-0.0008	5.396323620818404	1.5515689396674035	0.0655	5.433131113893479	1.3632312235033794	0.1076	5.1256544274003355	1.1424738271067205	-0.01275	4.982886083713982	0.8139083426484872	0.0119	5.0446025608565686	0.5092564186262908	0.0002	5.35052954321499	1.2006739645448397	0.01275	5.354053608856317	0.9456325377799849	-0.0119	5.5435249352353395	0.8289287169454427	-0.0002
545	9.083333333333334	5.309724709246125	0.696159606881655	0.0301	5.243160468740347	0.668596761950661	0.0301	5.726316185302009	0.47812803494313877	0.0179	5.658495287305245	0.07180591509531925	0.023	5.85047802913414	-0.06006708103099081	0.2179	5.805847840344162	-0.07528712080293523	0.1804	5.611100227655356	0.01084953616118684	-0.0119	5.385985870457139	0.7170367636842635	-0.0301	5.769785839254729	0.5258180902386641	-0.0179	5.5824942647178855	0.1349435083396888	0.023	5.700425214128068	-0.017987835935628083	0.2179	5.691258118878266	-0.0009904190257001794	0.1804	5.50830529117257	0.08522073797305099	-0.0119	5.335576068692256	1.2369540966654076	-0.0008	5.465733135713967	1.5423604302183407	0.0655	5.499814557676032	1.3506882253005528	0.1076	5.185488558992753	1.1318574353882285	-0.01275	5.036233334591599	0.8100133138723118	0.0119	5.08988386942826	0.5007766587788709	0.0002	5.425068221856826	1.1941172560175681	0.01275	5.42935231038824	0.9537746938609893	-0.0119	5.613975016412215	0.8318007524825587	-0.0002
546	9.1	5.376986429237972	0.6900297340609387	0.0301	5.307084591163354	0.6576589950162374	0.0301	5.783764273189938	0.4602414367252751	0.0179	5.796801963129927	0.05031848599072528	0.023	5.992577969518986	-0.07153516991527804	0.2179	5.949272019269895	-0.09053223415429835	0.1804	5.763850592861451	-0.01462462650629909	-0.0119	5.459345297872007	0.7156901906145472	-0.0301	5.851719546095633	0.5335339899159175	-0.0179	5.633451343064773	0.15795111297110656	0.023	5.739191002633762	0.0019473456100421657	0.2179	5.733496481300474	0.020003002310127777	0.1804	5.5542886621196095	0.11688851072191564	-0.0119	5.403799357523513	1.2252724486190374	-0.0008	5.533841484811781	1.5310258690462293	0.0655	5.5665198997542	1.3369375650987727	0.1076	5.246984558009184	1.1212869859978827	-0.01275	5.088638772175835	0.8064754746226727	0.0119	5.139394454542617	0.4953011829436526	0.0002	5.4978137507685	1.1861076489075448	0.01275	5.4982172111856125	0.9558228461450018	-0.0119	5.67312600973431	0.8288645024588889	-0.0002
547	9.116666666666667	5.4453526985000495	0.6836396253822798	0.0301	5.3721714815593025	0.6462448604407863	0.0301	5.837866722897064	0.43628218042284367	0.0179	5.914440100544612	0.0284685490390306	0.023	6.108414157223412	-0.08451344462327957	0.2179	6.063390980187121	-0.1070376003640763	0.1804	5.893930726861718	-0.03872417904580033	-0.0119	5.533570723504547	0.7138086967831975	-0.0301	5.932028133218704	0.5355401272408016	-0.0179	5.7055629285527365	0.17550830795767175	0.023	5.8088708218181955	0.02707314969682419	0.2179	5.805167567138754	0.04602475067702897	0.1804	5.625811072047933	0.14066474825193057	-0.0119	5.471817566191463	1.2123282093784193	-0.0008	5.601600347713794	1.516983241817237	0.0655	5.633698592652223	1.3216709932154114	0.1076	5.310353840564816	1.109971310067725	-0.01275	5.141144618117442	0.8016316868984431	0.0119	5.19379635727362	0.4911519823002015	0.0002	5.568471023209711	1.1765062410352147	0.01275	5.5587501315809265	0.950279602101575	-0.0119	5.721154153654647	0.8211808474861307	-0.0002
548	9.133333333333333	5.513596247424326	0.6772397872175208	0.0301	5.437086566283788	0.6357707982635249	0.0301	5.890139621001933	0.4120128416835255	0.0179	6.004806454905341	0.009359065146242719	0.023	6.1926068448185685	-0.0960459100265839	0.2179	6.143383219987986	-0.1218426803793609	0.1804	5.992465368055767	-0.05845668322927525	-0.0119	5.606875639500151	0.7110802413190385	-0.0301	6.008614217149657	0.5312647537273772	-0.0179	5.8004043524614515	0.18611120115712554	0.023	5.912893993295856	0.05366050127588482	0.2179	5.910267890048245	0.07343956408315652	0.1804	5.724425770245534	0.15248262858269293	-0.0119	5.539515762028088	1.1978531452934542	-0.0008	5.669556127059395	1.5003015890818614	0.0655	5.701426228536453	1.304971718991577	0.1076	5.3751574597244876	1.0975234390282587	-0.01275	5.1949460494061706	0.7941982206732001	0.0119	5.2528297683661425	0.4865817953429985	0.0002	5.637181762671623	1.165143536652792	0.01275	5.610849459610036	0.936940193486443	-0.0119	5.7607767517123465	0.8092443099724839	-0.0002
549	9.15	5.580479106502991	0.6709212986102274	0.0301	5.500323721617046	0.6271994981468193	0.0301	5.940534732174397	0.39231826781015144	0.0179	6.06642721348856	-0.00472937387960727	0.023	6.24513437446323	-0.10439665970676586	0.2179	6.190509231212856	-0.13266535418976533	0.1804	6.057261724112333	-0.07102752346738397	-0.0119	5.677591743929038	0.7070607394148158	-0.0301	6.079515440065455	0.5205919723406006	-0.0179	5.91665307660528	0.18944380975849467	0.023	6.049185472727803	0.07531007098369832	0.2179	6.047079022470826	0.09705529212353005	0.1804	5.849203093156374	0.15194299775071649	-0.0119	5.606598306323762	1.1819713091898283	-0.0008	5.737597130922039	1.481517840070228	0.0655	5.7693860860759685	1.2870317051317346	0.1076	5.440556725347327	1.0836856884083426	-0.01275	5.250972491880633	0.783481524805506	0.0119	5.3157381934821695	0.4804598641959908	0.0002	5.7044832799806615	1.1521149759455207	0.01275	5.656650914310539	0.9179862241020519	-0.0119	5.795968436410856	0.7935586740921846	-0.0002
550	9.166666666666666	5.644991130853603	0.6645726882354439	0.0301	5.560848698715861	0.6204703344119418	0.0301	5.987724128487667	0.3795789050919215	0.0179	6.103369869011943	-0.012940113685376998	0.023	6.271536840778307	-0.1094502345923234	0.2179	6.211505882334691	-0.1387199057890818	0.1804	6.093134145830092	-0.0760114095905061	-0.0119	5.744506679531043	0.7014398358632479	-0.0301	6.143112386509421	0.5045206934857839	-0.0179	6.0495287458090985	0.18562710997993717	0.023	6.209308775101538	0.08604826505210313	0.2179	6.206997073134418	0.11177727066375003	0.1804	5.995179469478675	0.14132240155114936	-0.0119	5.67278057899847	1.1648371678075842	-0.0008	5.8053672684103645	1.4613524316324167	0.0655	5.83710727141276	1.2679054533289118	0.1076	5.505613308904063	1.0682486522867605	-0.01275	5.309555658904786	0.7693932488298113	0.0119	5.3816024348064655	0.47267715711594593	0.0002	5.771166170702095	1.137751002682787	0.01275	5.700414515118842	0.8974210183338944	-0.0119	5.830336780827496	0.7748708903228534	-0.0002
551	9.183333333333334	5.706609942254816	0.657913357563233	0.0301	5.61835493306307	0.6145005426497209	0.0301	6.030191814353549	0.37325545945407257	0.0179	6.123414681230516	-0.016001563331947383	0.023	6.280626135883558	-0.11214001853502929	0.2179	6.2160083621046684	-0.14054070687068707	0.1804	6.109621421639049	-0.07550756539150838	-0.0119	5.807430971835665	0.6940560597708582	-0.0301	6.199043808708567	0.48501354394580776	-0.0179	6.191091759785527	0.17485022726566107	0.023	6.379668762417128	0.08348015112243863	0.2179	6.376220357062119	0.1146648012346787	0.1804	6.152442056241297	0.12335003884634947	-0.0119	5.737970052567162	1.146481347131913	-0.0008	5.8723064186763585	1.4400750431648897	0.0655	5.904055565050944	1.2474272939137885	0.1076	5.569597766746114	1.0512974759206433	-0.01275	5.370441331301016	0.7523425607156518	0.0119	5.449390065620257	0.464088960473851	0.0002	5.838413102546268	1.122273262927606	0.01275	5.74720333736001	0.8784615492525508	-0.0119	5.866253380852549	0.7539335684827931	-0.0002
